<?xml version="1.0" standalone="no"?>
<!DOCTYPE svg PUBLIC "-//W3C//DTD SVG 20010904//EN"
 "http://www.w3.org/TR/2001/REC-SVG-20010904/DTD/svg10.dtd">
<svg version="1.0" xmlns="http://www.w3.org/2000/svg"
 width="225.000000pt" height="225.000000pt" viewBox="0 0 225.000000 225.000000"
 preserveAspectRatio="xMidYMid meet">

<g transform="translate(0.000000,225.000000) scale(0.100000,-0.100000)"
fill="#000000" stroke="none">
<path d="M567 1674 l-117 -116 204 -205 c113 -113 211 -212 217 -220 11 -12
-23 -50 -202 -229 l-214 -214 117 -117 116 -116 216 216 215 216 214 -215
c117 -118 218 -214 223 -214 5 0 61 52 124 115 l115 115 -219 219 -218 218
217 218 218 217 -116 116 -117 117 -218 -218 -217 -217 -215 215 c-118 118
-217 215 -221 215 -3 0 -58 -52 -122 -116z"/>
</g>
</svg>
