<?xml version="1.0" standalone="no"?>
<!DOCTYPE svg PUBLIC "-//W3C//DTD SVG 20010904//EN"
 "http://www.w3.org/TR/2001/REC-SVG-20010904/DTD/svg10.dtd">
<svg version="1.0" xmlns="http://www.w3.org/2000/svg"
 width="225.000000pt" height="225.000000pt" viewBox="0 0 225.000000 225.000000"
 preserveAspectRatio="xMidYMid meet">

<g transform="translate(0.000000,225.000000) scale(0.100000,-0.100000)"
fill="#000000" stroke="none">
<path d="M1036 1854 c-9 -8 -16 -29 -16 -45 l0 -29 -119 0 c-135 0 -151 -7
-151 -65 0 -66 -6 -65 375 -65 381 0 375 -1 375 65 0 58 -16 65 -151 65 l-119
0 0 29 c0 48 -22 61 -105 61 -54 0 -78 -4 -89 -16z m162 -63 l3 -40 132 -3
132 -3 0 -30 0 -30 -340 0 -340 0 0 30 0 30 133 3 132 3 0 38 c0 21 2 40 4 42
2 2 35 3 73 3 l68 -2 3 -41z"/>
<path d="M676 1564 c-24 -24 -22 -145 2 -167 10 -10 25 -17 33 -17 12 0 21
-76 50 -414 24 -277 40 -420 49 -430 11 -14 54 -16 315 -16 262 0 304 2 316
16 12 14 78 687 79 802 0 34 3 42 18 42 11 0 26 8 35 18 23 25 24 144 1 166
-14 14 -68 16 -449 16 -381 0 -435 -2 -449 -16z m879 -84 c0 -63 -1 -65 -27
-68 -22 -3 -28 -10 -33 -35 -5 -31 -32 -348 -57 -657 -6 -80 -15 -151 -21
-157 -7 -10 -78 -13 -293 -13 l-284 0 -9 23 c-5 12 -23 195 -41 407 -17 212
-33 395 -35 407 -4 15 -14 23 -33 25 -25 3 -27 6 -30 57 -2 29 -1 60 2 67 5
12 77 14 433 12 l428 -3 0 -65z"/>
<path d="M906 1324 c-14 -13 -16 -60 -16 -359 0 -299 2 -346 16 -359 22 -22
50 -20 68 6 14 19 16 71 16 359 0 313 -1 337 -18 352 -23 21 -46 22 -66 1z
m51 -350 c2 -181 -1 -335 -6 -343 -5 -7 -14 -10 -20 -7 -12 8 -16 667 -4 680
24 24 28 -16 30 -330z"/>
<path d="M1098 1329 c-17 -9 -18 -37 -18 -364 0 -351 0 -354 21 -366 16 -8 28
-8 45 0 l24 11 0 353 c0 261 -3 356 -12 365 -15 15 -37 15 -60 1z m40 -370
c-2 -214 -7 -334 -13 -334 -11 0 -20 648 -10 674 4 9 9 11 15 5 7 -7 9 -136 8
-345z"/>
<path d="M1276 1318 c-24 -34 -24 -672 0 -706 18 -26 46 -28 68 -6 14 13 16
60 16 359 0 299 -2 346 -16 359 -22 22 -50 20 -68 -6z m52 -348 c2 -327 -2
-381 -28 -340 -11 17 -14 638 -4 665 4 9 12 14 18 12 8 -3 12 -101 14 -337z"/>
</g>
</svg>
